<?xml version="1.0" encoding="UTF-8" standalone="no"?>
<!-- Created with Inkscape (http://www.inkscape.org/) -->
<svg id="svg2" xmlns:rdf="http://www.w3.org/1999/02/22-rdf-syntax-ns#" xmlns="http://www.w3.org/2000/svg" height="79.446mm" width="148.59mm" version="1.1" xmlns:cc="http://creativecommons.org/ns#" xmlns:dc="http://purl.org/dc/elements/1.1/" viewBox="0 0 526.50004 281.5">
 <metadata id="metadata7">
  <rdf:RDF>
   <cc:Work rdf:about="">
    <dc:format>image/svg+xml</dc:format>
    <dc:type rdf:resource="http://purl.org/dc/dcmitype/StillImage"/>
    <dc:title/>
   </cc:Work>
  </rdf:RDF>
 </metadata>
 <g id="layer4" transform="translate(-13 -330.36)">
  <rect id="rect4166" height="276.72" width="521.72" stroke="#fff" y="332.75" x="15.389" stroke-width="4.7776" fill="#fff"/>
 </g>
 <g id="layer3" transform="translate(-13 -330.36)" stroke="#000" stroke-width="4">
  <path id="path4140" d="m86.25 427.1v70" fill="none"/>
  <path id="path4142" d="m156.25 377.1h-70v40" fill-rule="evenodd" fill="#0055a4"/>
  <path id="path4144" d="m86.25 507.1v60" fill="none"/>
  <g fill-rule="evenodd">
   <path id="path4146" d="m106.25 442.1 30 20-30 20" fill="#0055a4"/>
   <path id="path4148" d="m136.25 567.1 40-190h20l30 150" fill="#0055a4"/>
   <path id="path4150" d="m216.25 375.1 30 150h50v-70h-30l-33.665 0.0126" fill="#fff"/>
  </g>
 </g>
 <g id="layer1" transform="translate(-13 -330.36)">
  <path id="path4170" d="m470 462.29h-93.599v-89.575h89.575l-89.575 89.575" fill-rule="evenodd" stroke="#000" stroke-width="4" fill="#ef4135"/>
 </g>
 <g id="layer2" transform="translate(-13 -330.36)">
  <text id="text5379" style="word-spacing:0px;letter-spacing:0px" xml:space="preserve" font-size="40px" y="568.38068" x="471.81061" font-family="sans-serif" line-height="125%" fill="#808080"><tspan id="tspan5381" style="text-anchor:end;text-align:end" font-weight="300" y="568.38068" x="471.81061" font-family="Rajdhani" fill="#808080">CONF &apos;17</tspan></text>
 </g>
 <path id="path4158" d="m302 40v155h155" stroke="#000" stroke-width="4" fill="none"/>
</svg>
